<?xml version="1.0" standalone="no"?>
<!DOCTYPE svg PUBLIC "-//W3C//DTD SVG 20010904//EN"
 "http://www.w3.org/TR/2001/REC-SVG-20010904/DTD/svg10.dtd">
<svg version="1.0" xmlns="http://www.w3.org/2000/svg"
 width="460.000000pt" height="460.000000pt" viewBox="0 0 460.000000 460.000000"
 preserveAspectRatio="xMidYMid meet">
<metadata>
Created by potrace 1.14, written by Peter Selinger 2001-2017
</metadata>
<g transform="translate(0.000000,460.000000) scale(0.100000,-0.100000)"
fill="#000000" stroke="none">
<path d="M2693 3175 c-40 -13 -90 -27 -110 -31 -21 -4 -55 -15 -75 -25 -21
-11 -42 -19 -48 -19 -12 0 -94 -63 -120 -92 -8 -9 -43 -32 -77 -50 -76 -41
-153 -107 -201 -173 -20 -27 -62 -81 -93 -120 -32 -38 -61 -83 -64 -98 -14
-53 -69 -142 -122 -195 -29 -29 -58 -63 -65 -75 -6 -12 -26 -38 -44 -57 -100
-105 -117 -128 -146 -189 -30 -61 -32 -76 -36 -190 -4 -121 3 -196 35 -351 19
-95 35 -125 73 -138 22 -8 30 -17 30 -34 0 -37 12 -46 95 -74 60 -19 108 -27
190 -31 104 -5 112 -4 145 19 19 13 49 31 65 40 73 38 207 117 223 131 9 8 34
23 54 33 122 61 249 163 314 250 31 42 70 119 99 199 15 39 33 77 40 85 7 8
16 26 20 40 4 14 13 32 20 40 21 26 75 134 75 152 0 9 5 20 11 23 18 12 67
130 78 191 6 32 21 72 32 88 17 23 19 32 10 52 -9 20 -7 28 8 43 11 11 22 41
26 72 4 30 16 91 27 137 l21 84 -21 36 c-11 20 -23 54 -27 74 -8 40 -19 47
-118 69 -47 10 -61 18 -72 40 -39 74 -120 88 -252 44z m182 -21 c42 -28 48
-77 20 -169 -13 -44 -31 -115 -39 -157 -19 -100 -68 -209 -122 -276 -24 -30
-44 -58 -44 -63 0 -4 -19 -31 -42 -59 -85 -99 -103 -122 -123 -149 -47 -65
-140 -188 -157 -206 -10 -11 -57 -60 -104 -110 -47 -49 -91 -101 -99 -115 -17
-32 -93 -103 -132 -123 -29 -15 -63 -76 -63 -111 0 -13 -105 -128 -141 -155
-24 -17 -126 -42 -183 -44 -46 -2 -49 0 -67 34 -24 45 -49 239 -49 384 0 125
18 205 53 244 13 14 34 41 46 59 12 17 26 32 30 32 8 0 1 -55 -23 -185 -28
-146 -17 -176 49 -141 40 22 63 69 71 144 4 37 16 71 33 97 22 34 26 53 29
134 3 57 0 97 -7 104 -7 7 1 23 30 54 22 24 47 61 56 81 31 77 64 138 89 167
19 22 24 24 19 10 -3 -11 -10 -38 -15 -60 -5 -22 -16 -69 -25 -105 -10 -41
-17 -115 -18 -200 -2 -117 1 -144 21 -205 15 -45 21 -81 17 -102 -13 -71 33
-37 75 55 25 55 34 72 72 132 45 73 72 227 63 370 -6 108 -22 201 -46 262 -16
39 8 67 102 124 44 27 94 60 110 73 17 13 33 21 36 18 3 -4 -5 -39 -19 -79
-14 -40 -37 -114 -52 -164 l-27 -92 20 -48 c10 -27 22 -67 26 -89 10 -62 45
-135 64 -135 18 0 23 12 77 164 22 62 37 126 41 170 2 39 18 111 35 161 30 88
34 148 13 197 -9 23 18 34 150 64 124 28 121 27 150 8z m-329 -119 c5 -35 -1
-71 -25 -159 -17 -62 -31 -130 -31 -152 0 -21 -13 -79 -30 -129 -16 -49 -32
-103 -35 -119 -8 -40 -18 -26 -54 87 -37 112 -36 125 16 261 42 113 57 174 44
190 -14 17 -2 30 44 48 59 24 63 22 71 -27z m506 15 c22 0 31 -6 35 -21 3 -12
17 -42 29 -68 27 -53 30 -95 10 -148 -8 -21 -20 -65 -26 -98 -7 -33 -21 -70
-32 -82 -15 -16 -18 -29 -14 -51 6 -24 3 -32 -18 -46 -26 -17 -71 -22 -80 -8
-2 4 0 42 6 85 9 63 14 77 29 77 35 0 51 14 71 59 37 83 38 148 4 176 -13 11
-26 29 -30 41 -8 27 -43 64 -61 64 -20 0 -19 -17 4 -48 10 -15 21 -39 24 -53
4 -14 18 -31 32 -37 32 -15 32 -27 0 -48 -30 -20 -32 -34 -6 -41 17 -4 18 -8
8 -27 -22 -38 -40 -56 -58 -56 -34 0 -57 -65 -64 -179 -2 -29 -8 -37 -46 -57
-24 -13 -57 -38 -73 -56 l-29 -32 7 27 c3 14 9 55 13 89 3 35 14 74 23 88 35
50 60 117 74 197 8 44 27 116 41 159 15 44 28 85 31 93 3 9 14 12 35 7 18 -3
45 -6 61 -6z m-921 -327 c22 -54 24 -69 24 -243 0 -172 -2 -189 -24 -245 -13
-33 -30 -67 -36 -75 -7 -8 -27 -43 -44 -77 -17 -35 -33 -63 -35 -63 -2 0 -11
41 -21 90 -25 128 -9 344 35 473 17 49 28 92 25 97 -6 9 35 100 45 100 4 0 17
-26 31 -57z m601 -296 c-16 -67 -18 -69 -65 -93 -27 -14 -53 -24 -59 -22 -6 2
8 25 30 51 23 26 55 68 73 93 17 25 32 44 34 42 2 -2 -4 -34 -13 -71z m248 46
c0 -15 -74 -112 -101 -132 -16 -12 -29 -30 -29 -41 0 -27 -11 -25 -43 8 l-26
27 22 40 c23 40 61 68 126 91 42 15 51 17 51 7z m35 -64 c-9 -24 -25 -63 -35
-86 -11 -24 -30 -64 -42 -90 -12 -27 -29 -59 -38 -73 -10 -14 -21 -36 -25 -50
-4 -14 -23 -48 -41 -77 -18 -29 -45 -87 -59 -130 -15 -43 -32 -85 -40 -93 -7
-8 -21 -31 -31 -51 -33 -64 -172 -198 -221 -213 -12 -4 -51 -26 -86 -49 -102
-66 -180 -113 -201 -121 -11 -4 -49 -26 -85 -50 -78 -52 -138 -73 -154 -57 -8
8 -7 11 2 11 7 0 48 34 90 75 70 68 82 75 127 81 85 10 148 26 179 47 48 32
75 64 75 89 0 16 13 31 41 48 22 13 51 43 64 67 28 47 73 83 105 83 42 0 60
18 60 61 0 22 -4 49 -10 59 -7 13 -6 19 5 24 21 8 52 74 71 152 19 79 23 85
67 100 40 14 59 48 51 95 -5 34 -2 39 31 65 20 15 43 41 52 58 16 33 54 78 60
73 2 -2 -4 -24 -12 -48z m-308 -116 c-9 -9 -20 -14 -24 -10 -3 4 2 14 13 21
25 19 33 10 11 -11z m-919 -93 c-3 -26 -16 -64 -32 -89 -21 -33 -30 -62 -35
-119 -6 -61 -11 -78 -30 -93 -13 -11 -28 -19 -33 -19 -12 0 -4 52 17 120 20
62 36 175 29 194 -4 10 9 35 32 66 l39 51 8 -33 c5 -18 7 -53 5 -78z m1021 53
c29 -35 32 -53 10 -53 -6 0 -25 -11 -43 -25 -18 -14 -36 -25 -41 -25 -12 0 2
95 17 119 17 28 22 27 57 -16z m-113 -55 c-3 -29 -5 -59 -6 -65 0 -7 -26 -26
-58 -42 -61 -31 -63 -34 -124 -168 -7 -14 -22 -22 -44 -25 -19 -2 -34 -2 -34
-1 0 2 10 23 22 46 27 53 30 135 5 149 -23 13 -22 18 18 61 19 21 42 51 50 68
15 28 17 29 95 29 l80 0 -4 -52z m29 -130 c-4 -18 -14 -52 -22 -76 -14 -37
-20 -43 -38 -38 -14 4 -28 0 -35 -9 -10 -12 -7 -23 14 -59 35 -60 34 -76 -5
-76 -39 0 -82 -25 -102 -59 -8 -14 -32 -45 -52 -68 -30 -35 -43 -43 -70 -43
-42 0 -50 -13 -35 -50 11 -27 10 -31 -16 -54 -40 -35 -127 -66 -203 -73 -62
-6 -65 -8 -125 -69 -89 -89 -117 -104 -196 -104 -60 1 -63 2 -40 14 14 8 57
26 95 40 39 15 77 31 85 35 15 8 34 97 23 114 -10 17 -43 -26 -43 -58 0 -31
-3 -33 -57 -49 -32 -9 -87 -31 -123 -49 -36 -17 -68 -33 -72 -35 -11 -6 -48
37 -48 56 0 14 15 20 73 31 66 12 145 53 169 86 4 6 28 31 53 56 33 35 45 55
45 77 0 31 42 93 55 80 16 -16 6 -101 -15 -130 -22 -30 -20 -48 6 -48 23 0 44
62 47 140 3 60 7 73 26 86 12 9 32 32 46 52 13 21 63 80 112 133 48 52 101
110 116 128 37 42 51 32 44 -32 -8 -60 -12 -65 -35 -44 -28 25 -36 22 -87 -38
-47 -55 -73 -121 -55 -139 13 -13 25 0 39 44 7 19 25 51 41 70 24 27 32 32 42
22 10 -10 10 -16 0 -30 -7 -9 -21 -37 -33 -61 -23 -51 -47 -77 -104 -114 -57
-36 -137 -115 -130 -127 10 -16 30 -12 52 13 38 41 118 103 151 116 18 8 32
21 32 30 0 42 61 89 130 100 30 5 38 13 61 60 15 30 37 62 49 71 13 10 20 22
16 28 -7 12 40 52 63 52 9 0 25 7 35 15 27 21 28 19 21 -17z"/>
</g>
</svg>
